<svg width="82" height="73" viewBox="0 0 82 73" fill="none" xmlns="http://www.w3.org/2000/svg">
<path d="M28.9 -7.62939e-06L29.8845 0.175209L30.0937 -1.00001H28.9V-7.62939e-06ZM22.6 35.4L21.6155 35.2248L21.4063 36.4H22.6V35.4ZM33.1 35.4H34.1V34.4H33.1V35.4ZM33.1 72.6V73.6H34.1V72.6H33.1ZM0.700001 72.6H-0.299999V73.6H0.700001V72.6ZM0.700001 35.1L-0.262449 34.8285L-0.299999 34.9617V35.1H0.700001ZM10.6 -7.62939e-06V-1.00001H9.84304L9.63755 -0.271465L10.6 -7.62939e-06ZM77.5 -7.62939e-06L78.4845 0.175209L78.6937 -1.00001H77.5V-7.62939e-06ZM71.2 35.4L70.2155 35.2248L70.0063 36.4H71.2V35.4ZM81.7 35.4H82.7V34.4H81.7V35.4ZM81.7 72.6V73.6H82.7V72.6H81.7ZM49.3 72.6H48.3V73.6H49.3V72.6ZM49.3 35.1L48.3376 34.8285L48.3 34.9617V35.1H49.3ZM59.2 -7.62939e-06V-1.00001H58.443L58.2376 -0.271465L59.2 -7.62939e-06ZM27.9155 -0.17522L21.6155 35.2248L23.5845 35.5752L29.8845 0.175209L27.9155 -0.17522ZM22.6 36.4H33.1V34.4H22.6V36.4ZM32.1 35.4V72.6H34.1V35.4H32.1ZM33.1 71.6H0.700001V73.6H33.1V71.6ZM1.7 72.6V35.1H-0.299999V72.6H1.7ZM1.66245 35.3715L11.5625 0.271454L9.63755 -0.271465L-0.262449 34.8285L1.66245 35.3715ZM10.6 0.999992H28.9V-1.00001H10.6V0.999992ZM76.5155 -0.17522L70.2155 35.2248L72.1845 35.5752L78.4845 0.175209L76.5155 -0.17522ZM71.2 36.4H81.7V34.4H71.2V36.4ZM80.7 35.4V72.6H82.7V35.4H80.7ZM81.7 71.6H49.3V73.6H81.7V71.6ZM50.3 72.6V35.1H48.3V72.6H50.3ZM50.2625 35.3715L60.1625 0.271454L58.2376 -0.271465L48.3376 34.8285L50.2625 35.3715ZM59.2 0.999992H77.5V-1.00001H59.2V0.999992Z" fill="#FFFDFD"/>
</svg>
